<?xml version="1.0" encoding="UTF-8" standalone="no"?>
<svg
   viewBox="0 0 261.76 226.69"
   version="1.1"
   id="svg2"
   sodipodi:docname="logo.svg"
   inkscape:version="1.3 (0e150ed6c4, 2023-07-21)"
   xml:space="preserve"
   xmlns:inkscape="http://www.inkscape.org/namespaces/inkscape"
   xmlns:sodipodi="http://sodipodi.sourceforge.net/DTD/sodipodi-0.dtd"
   xmlns="http://www.w3.org/2000/svg"
   xmlns:svg="http://www.w3.org/2000/svg"><defs
     id="defs2" /><sodipodi:namedview
     id="namedview2"
     pagecolor="#00225b"
     bordercolor="#000000"
     borderopacity="0.25"
     inkscape:showpageshadow="2"
     inkscape:pageopacity="0.0"
     inkscape:pagecheckerboard="0"
     inkscape:deskcolor="#d1d1d1"
     inkscape:zoom="2.8284271"
     inkscape:cx="155.91705"
     inkscape:cy="136.64839"
     inkscape:window-width="2560"
     inkscape:window-height="1369"
     inkscape:window-x="-8"
     inkscape:window-y="-8"
     inkscape:window-maximized="1"
     inkscape:current-layer="svg2" /><g
     transform="matrix(1.1278676,0,0,1.1278676,-473.0446,-558.59094)"
     id="g2"
     style="fill:#f9f9f9"><path
       clip-path="none"
       d="M 50.009,66.692 36.33,56.749 13.512,73.325 41.296,93.514 Z M 68.218,79.917 45.401,96.5 68.218,113.074 91.022,96.5 Z M 20.546,45.277 H 56.927 L -26.724,-15.506 -7.197,25.13 Z m 38.177,-5.401 6.959,-21.398 -116.873,-84.919 19.525,40.644 z m -64.779,-80.218 -28.566,-59.439 -13.78,28.674 z m 106.148,97.091 -13.674,9.943 8.72,26.822 27.774,-20.189 z M 79.502,45.277 h 36.38 L 143.625,25.13 163.144,-15.506 Z M 187.62,-66.441 70.751,18.478 77.7,39.876 168.09,-25.797 Z m -2.791,-4.666 -13.779,-28.674 -28.574,59.439 z"
       fill="#00529b"
       transform="matrix(0.940743,0,0,0.940743,471.34614,589.53619)"
       id="path1"
       style="fill:#f9f9f9" /><path
       fill="#00529b"
       d="m 523.597,646.684 c 0,-6.582 5.34,-11.926 11.93,-11.926 a 11.94,11.94 0 0 1 11.926,11.926 c 0,6.59 -5.35,11.929 -11.926,11.929 a 11.93,11.93 0 0 1 -11.93,-11.929 z m -157.473,87.969 h 8.629 v 13.731 c 0,1.508 0.137,2.604 0.685,3.528 1.096,1.882 3.287,2.397 5.034,2.397 2.26,0 3.561,-0.787 4.143,-1.336 1.471,-1.369 1.507,-3.561 1.507,-4.725 v -13.594 h 8.629 v 12.669 c 0,2.842 -0.067,5.821 -1.403,7.877 -2.637,4.108 -9.006,4.485 -12.841,4.485 -5.376,0 -8.423,-0.754 -10.238,-1.847 -3.767,-1.851 -4.143,-5.686 -4.143,-7.638 v -15.548 z m 30.933,17.875 h 7.876 v 6.3 h -7.876 z m 21.068,-11.643 c 0,0.343 0.102,0.651 0.274,0.857 0.582,0.754 3.013,1.3 4.349,1.575 l 4.964,1.06 c 1.062,0.206 2.089,0.447 3.117,0.857 3.218,1.199 4.247,3.596 4.247,5.787 a 7.52,7.52 0 0 1 -1.267,4.143 c -2.021,3.048 -6.096,4.384 -12.602,4.384 -2.431,0 -7.259,-0.205 -10.1,-2.739 -2.089,-1.85 -2.398,-4.075 -2.534,-5.17 l 8.526,-0.241 c 0.308,1.576 1.917,2.774 5.342,2.774 0.891,0 2.157,-0.103 3.013,-0.581 0.582,-0.343 1.199,-1.029 1.199,-1.85 0,-1.131 -0.924,-1.611 -1.609,-1.85 -1.062,-0.342 -6.506,-1.302 -7.706,-1.576 a 25.5,25.5 0 0 1 -2.772,-0.754 c -0.924,-0.342 -4.795,-1.713 -4.795,-6.13 0,-1.816 0.754,-3.493 1.952,-4.725 2.705,-2.807 7.568,-3.081 10.238,-3.081 2.945,0 5.857,0.41 7.362,0.923 4.52,1.439 5.103,4.83 5.343,6.131 l -8.492,0.48 c -0.206,-0.789 -0.617,-2.227 -4.247,-2.227 -1.131,0 -3.802,0.172 -3.802,1.953 z m 19.765,11.643 h 7.876 v 6.3 h -7.876 z m 39.316,-2.979 h -5.615 l 2.773,-8.184 z m -18.217,9.279 h 9.486 l 1.301,-3.939 h 9.246 l 1.301,3.939 h 9.418 l -10.48,-24.175 H 469.4 Z m 42.625,-24.175 v 24.175 h -8.664 v -24.175 z m 15.098,5.479 h 7.192 c 0.65,0 1.54,0.067 2.225,0.686 0.446,0.411 0.617,0.992 0.617,1.541 0,2.157 -2.192,2.191 -3.528,2.191 h -6.506 z m -8.663,18.696 h 8.663 v -8.8 h 4.623 l 4.964,8.8 h 9.589 l -6.061,-9.657 c 1.027,-0.274 2.671,-0.617 4.04,-2.26 0.994,-1.198 1.542,-2.878 1.542,-4.589 0,-2.432 -1.096,-4.793 -2.843,-6.13 -2.02,-1.473 -4.623,-1.508 -6.745,-1.541 h -17.773 z m 40.761,-24.175 h 23.695 v 5.444 h -15.032 v 4.623 h 13.799 v 5.41 h -13.799 v 8.698 h -8.664 v -24.175 z m 43.098,4.485 c 5.923,0.069 7.089,4.931 7.089,7.568 0,2.43 -0.924,5.582 -3.596,6.917 -1.061,0.548 -2.294,0.686 -3.493,0.686 -5.238,0 -7.26,-3.869 -7.26,-7.602 0,-3.322 1.816,-7.637 7.26,-7.569 z m -0.514,-5.376 c -4.281,0.069 -10.033,0.857 -13.423,5.652 -1.543,2.189 -2.228,4.862 -2.228,7.567 0,2.773 0.651,5.102 2.294,7.293 1.781,2.432 5.24,5.41 13.663,5.41 4.382,0 8.286,-0.614 11.574,-3.218 1.163,-0.891 2.122,-1.985 2.877,-3.254 1.198,-1.986 1.747,-4.313 1.747,-6.573 0,-4.143 -1.952,-9.213 -7.501,-11.471 -2.771,-1.133 -5.992,-1.439 -9.004,-1.406 z m 29.998,6.37 h 7.192 c 0.65,0 1.541,0.067 2.225,0.686 0.447,0.411 0.617,0.992 0.617,1.541 0,2.157 -2.192,2.191 -3.527,2.191 h -6.507 z m -8.664,18.696 h 8.664 v -8.8 h 4.623 l 4.965,8.8 h 9.588 l -6.062,-9.657 c 1.028,-0.274 2.672,-0.617 4.041,-2.26 0.994,-1.198 1.541,-2.878 1.541,-4.589 0,-2.432 -1.095,-4.793 -2.842,-6.13 -2.02,-1.473 -4.622,-1.508 -6.744,-1.541 h -17.774 z m 40.442,-12.087 c 0,3.664 2.156,7.466 7.122,7.466 1.882,0 3.628,-0.583 4.897,-1.61 1.129,-0.926 1.472,-1.711 1.746,-2.433 l 8.251,0.856 c -0.274,0.891 -0.581,1.781 -1.37,3.013 -2.842,4.384 -8.39,5.617 -13.697,5.617 -2.363,0 -4.692,-0.207 -6.917,-0.891 -4.966,-1.542 -9.074,-5.342 -9.074,-11.984 0,-4.692 2.464,-13.15 16.23,-13.15 11.744,0 13.596,5.342 14.382,7.636 l -8.012,1.438 c -0.341,-0.686 -0.754,-1.611 -2.021,-2.432 -1.302,-0.822 -2.911,-1.097 -4.143,-1.097 -3.901,0 -7.393,2.431 -7.393,7.569 z m 51.28,-12.088 v 5.444 h -16.814 v 3.938 h 15.547 v 5.479 h -15.582 v 3.835 h 17.189 v 5.479 h -25.818 v -24.175 z"
       clip-path="none"
       id="path2"
       style="fill:#f9f9f9" /></g></svg>
