<?xml version="1.0" encoding="UTF-8" standalone="no"?>
<!-- Created with Inkscape (http://www.inkscape.org/) -->

<svg
   version="1.1"
   id="svg1"
   width="400"
   height="400"
   viewBox="0 0 400 399.99999"
   sodipodi:docname="s-l300.svg"
   inkscape:version="1.3 (0e150ed6c4, 2023-07-21)"
   xml:space="preserve"
   xmlns:inkscape="http://www.inkscape.org/namespaces/inkscape"
   xmlns:sodipodi="http://sodipodi.sourceforge.net/DTD/sodipodi-0.dtd"
   xmlns="http://www.w3.org/2000/svg"
   xmlns:svg="http://www.w3.org/2000/svg"><defs
     id="defs1" /><sodipodi:namedview
     id="namedview1"
     pagecolor="#ffffff"
     bordercolor="#000000"
     borderopacity="0.25"
     inkscape:showpageshadow="2"
     inkscape:pageopacity="0.0"
     inkscape:pagecheckerboard="0"
     inkscape:deskcolor="#d1d1d1"
     showgrid="false"
     inkscape:export-bgcolor="#00000000"
     inkscape:zoom="1.2242883"
     inkscape:cx="40.840054"
     inkscape:cy="160.50141"
     inkscape:window-width="2560"
     inkscape:window-height="1369"
     inkscape:window-x="-8"
     inkscape:window-y="-8"
     inkscape:window-maximized="1"
     inkscape:current-layer="g1" /><g
     inkscape:groupmode="layer"
     inkscape:label="Image"
     id="g1"
     transform="translate(-6.1276159,-123.03196)"><ellipse
       style="fill:#d4aa00;stroke-width:1.92442"
       id="path5"
       cx="207.07944"
       cy="338.43967"
       rx="199.70787"
       ry="104.55054" /><path
       style="fill:#f9f9f9;stroke-width:1.02938"
       d="m 206.77506,385.47439 0.2387,-23.6757 -5.33886,0.32431 c -4.55156,0.2765 -11.0514,-2.13316 -19.80169,-7.34102 -0.23947,-0.14253 1.12973,-3.34777 3.04266,-7.12275 3.47335,-6.85436 9.22195,-12.62444 12.5774,-12.62444 4.11585,0 6.08921,-4.25732 6.08921,-13.13687 0,-8.5423 -0.11142,-8.82327 -3.49941,-8.82327 -4.69485,0 -10.72585,3.26184 -14.20204,7.68109 l -2.84621,3.61841 -4.87151,-4.27724 c -4.14883,-3.64271 -4.45412,-4.27724 -2.05795,-4.27724 1.54746,0 6.24887,-1.93876 10.44757,-4.30835 5.82672,-3.2884 9.85603,-4.46736 17.01983,-4.97993 8.7291,-0.62455 10.10656,-0.31543 19.68646,4.41809 5.66536,2.79931 11.72483,4.88587 13.46548,4.63679 3.24476,-0.46429 5.54404,-4.15688 26.65558,-42.80834 7.91282,-14.48695 8.38739,-15.03712 16.90656,-19.59996 4.82085,-2.58205 8.98321,-4.47661 9.24965,-4.21016 0.26647,0.26645 -0.42139,2.91014 -1.52857,5.87488 -1.10718,2.96472 -6.37587,17.60451 -11.70822,32.53284 -5.33234,14.92834 -10.01376,27.97266 -10.40314,28.98739 -0.56831,1.48097 4.16324,2.04195 23.98406,2.84357 20.9471,0.84718 25.02145,1.36266 26.8641,3.39873 2.05209,2.26755 1.31805,2.44931 -13.29047,3.29108 -8.50439,0.49001 -20.17352,0.89376 -25.93141,0.89719 -8.01414,0.004 -10.90599,0.53295 -12.3331,2.2525 -1.71197,2.06279 -0.80092,2.17361 11.15514,1.35686 7.16065,-0.48917 26.29838,-1.49668 42.52826,-2.23891 16.22992,-0.74225 35.3764,-1.69734 42.54776,-2.12243 l 13.03882,-0.77289 16.47008,9.33746 16.47011,9.33747 -17.15634,1.57208 c -9.436,0.86466 -38.77336,3.27989 -65.19413,5.3672 -27.57922,2.17881 -48.70691,4.43461 -49.60895,5.29671 -0.86415,0.82589 -5.42922,10.51444 -10.1446,21.53012 -8.08162,18.87958 -8.91982,20.23771 -14.61174,23.67576 -3.32106,2.006 -6.29786,3.64727 -6.6151,3.64727 -0.31723,0 2.17847,-6.57633 5.54598,-14.61407 3.36752,-8.03776 6.12276,-15.12323 6.12276,-15.74552 0,-0.96598 -3.29978,-2.09397 -17.98735,-6.14885 -1.70469,-0.47061 -3.22445,2.27234 -6.71345,12.1169 -7.7912,21.98349 -10.11348,25.06378 -20.83067,27.63013 l -3.66996,0.87881 z m -10.74137,20.01781 c -2.26463,-1.19658 -5.09304,-3.02515 -6.28537,-4.06347 -1.85278,-1.61352 -3.5381,-1.45779 -11.59634,1.07159 l -9.4285,2.95947 -7.38287,-3.98794 c -7.32594,-3.95722 -7.45198,-4.13612 -16.34745,-23.20307 -4.93053,-10.5683 -9.40072,-19.68808 -9.93376,-20.26617 -0.53304,-0.57809 -29.33944,-3.83698 -64.014238,-7.242 -34.674779,-3.40502 -63.5846818,-6.35447 -64.2442293,-6.55433 -0.6595465,-0.19986 6.5345533,-4.81573 15.9868903,-10.25749 l 17.186068,-9.89407 h 27.284843 c 22.525303,0 27.819321,-0.37437 30.348826,-2.14608 2.209662,-1.54772 9.27888,-2.55782 25.35365,-3.62267 12.25934,-0.81212 22.43311,-1.58532 22.60837,-1.71823 0.17527,-0.13291 -6.16206,-15.27498 -14.08296,-33.64903 -7.92091,-18.37408 -14.18388,-33.62516 -13.9177,-33.89133 0.99944,-0.99946 20.89071,7.94515 22.53509,10.13347 2.95694,3.9351 1.90404,4.5567 -3.83135,2.26185 -3.05083,-1.22072 -5.86627,-1.90015 -6.25655,-1.50989 -0.39028,0.39028 6.08478,14.28759 14.38902,30.88293 l 15.09861,30.17334 -10.55769,0.83417 c -5.80674,0.45878 -18.74126,1.24013 -28.74342,1.73632 -10.00214,0.49621 -18.18573,1.43275 -18.18573,2.08118 0,0.64845 11.27756,1.17899 25.06125,1.17899 23.5748,0 25.16293,0.16281 26.77552,2.74501 2.10308,3.36755 7.62728,3.2588 -58.556898,1.15283 l -51.326615,-1.63319 -8.718764,4.70083 c -8.831326,4.76152 -10.682179,6.74587 -6.320538,6.77642 1.321037,0.01 11.666317,0.91376 22.989506,2.01002 11.323189,1.09626 34.79307,3.28147 52.155309,4.85599 17.36222,1.57453 32.87262,3.13103 34.46753,3.45889 2.21673,0.4557 4.90636,5.04673 11.41759,19.48921 7.65759,16.9852 13.0089,25.06938 16.59468,25.06938 0.68758,0 -0.88122,-5.05368 -3.48622,-11.23038 -2.60501,-6.17672 -4.49295,-11.47382 -4.19541,-11.77137 0.69544,-0.69543 20.18068,-5.76634 22.27691,-5.79739 0.87533,-0.0129 1.28766,1.12163 0.9194,2.52992 -1.05816,4.04638 10.98927,26.78397 15.21043,28.70727 2.68512,1.22341 3.5569,2.63702 3.5569,5.76758 0,2.28082 -0.15441,4.1222 -0.34314,4.092 -0.18871,-0.0303 -2.196,-1.03398 -4.46065,-2.23056 z"
       id="path1" /></g></svg>
